<?xml version="1.0" standalone="no"?>
<!DOCTYPE svg PUBLIC "-//W3C//DTD SVG 20010904//EN"
 "http://www.w3.org/TR/2001/REC-SVG-20010904/DTD/svg10.dtd">
<svg version="1.0" xmlns="http://www.w3.org/2000/svg"
 width="1000.000000pt" height="1000.000000pt" viewBox="0 0 1000.000000 1000.000000"
 preserveAspectRatio="xMidYMid meet">

<g transform="translate(0.000000,1000.000000) scale(0.100000,-0.100000)"
fill="#000000" stroke="none">
<path d="M6410 7045 c-498 -62 -861 -224 -1151 -514 -377 -378 -547 -899 -526
-1611 12 -418 80 -718 227 -1015 89 -179 177 -302 315 -440 224 -224 479 -366
809 -450 239 -60 334 -70 686 -70 276 1 333 4 460 23 557 87 1027 292 1365
596 l75 67 0 740 0 739 -875 0 -875 0 0 -310 0 -310 490 0 490 0 0 -280 0
-279 -72 -52 c-363 -255 -1048 -359 -1467 -222 -160 52 -279 123 -400 238
-206 197 -329 479 -372 853 -16 141 -7 538 15 657 82 448 303 760 640 902 184
78 438 114 663 93 409 -37 711 -229 869 -552 16 -32 33 -58 39 -58 5 1 179 52
385 114 327 100 375 117 372 133 -7 35 -121 259 -173 338 -71 107 -270 305
-379 376 -217 143 -470 234 -790 285 -147 23 -659 29 -820 9z"/>
<path d="M2457 7003 c-4 -3 -7 -152 -7 -330 l0 -323 400 0 400 0 0 -1122 c0
-1062 -1 -1128 -19 -1215 -57 -274 -217 -414 -476 -416 -55 0 -125 5 -155 12
-212 51 -343 209 -412 495 -12 50 -23 92 -24 94 -2 3 -748 -102 -805 -114
l-27 -5 18 -77 c121 -538 359 -839 770 -976 212 -70 370 -90 663 -83 233 5
330 19 487 69 385 123 660 412 766 803 54 201 54 198 54 1756 l0 1439 -813 0
c-448 0 -817 -3 -820 -7z"/>
</g>
</svg>
